<svg width="26" height="26" viewBox="0 0 26 26" fill="none" xmlns="http://www.w3.org/2000/svg">
<path d="M20.8756 5.33106L12.6734 2.01716C9.91607 0.903112 6.77767 2.23528 5.66363 4.99264L2.34973 13.1948C1.23568 15.9522 2.56785 19.0906 5.32521 20.2046L13.5274 23.5185C16.2848 24.6326 19.4232 23.3004 20.5372 20.5431L23.8511 12.3409C24.9652 9.5835 23.633 6.44511 20.8756 5.33106Z" fill="#1863CC"/>
<path fill-rule="evenodd" clip-rule="evenodd" d="M14.1108 9.87082C14.2299 9.39788 14.8897 9.36687 15.0517 9.82764L16.3489 13.5171H17.6674C17.82 13.3027 18.0704 13.1625 18.3555 13.1625C18.8226 13.1625 19.2007 13.5399 19.2007 14.0099C19.2007 14.4763 18.8261 14.8573 18.3555 14.8573C18.0717 14.8573 17.8205 14.7178 17.6673 14.5027H16.0007C15.7915 14.5027 15.6059 14.3703 15.5367 14.1736L14.6657 11.6964L13.279 17.2034C13.1581 17.6832 12.4852 17.7054 12.3337 17.2338L11.0058 13.1L10.5704 14.1926C10.496 14.3794 10.3153 14.5027 10.1136 14.5027H7.75875C7.48616 14.5027 7.26685 14.2811 7.26685 14.0099C7.26685 13.7386 7.48616 13.5171 7.75875 13.5171H9.78031L10.5987 11.4633C10.7697 11.0342 11.3826 11.0557 11.5238 11.4951L12.7447 15.2958L14.1108 9.87082ZM17.9925 14.01L18.0507 14.1445C18.102 14.263 18.2191 14.3444 18.3555 14.3444C18.5398 14.3444 18.6878 14.1962 18.6878 14.0099C18.6878 13.8226 18.5388 13.6753 18.3555 13.6753C18.2184 13.6753 18.102 13.757 18.0508 13.8753L17.9925 14.01Z" fill="white"/>
</svg>
