<svg width="16" height="24" viewBox="0 0 16 24" fill="none" xmlns="http://www.w3.org/2000/svg">
<path d="M8 4C3.58172 4 0 7.58172 0 12C0 16.4183 3.58172 20 8 20C12.4183 20 16 16.4183 16 12C15.9949 7.58385 12.4161 4.00514 8 4Z" fill="#1971F5" fill-opacity="0.4"/>
<path d="M12.6177 9.46675L8.05438 15.6594C7.94555 15.8038 7.78327 15.8984 7.604 15.922C7.42473 15.9456 7.2435 15.8961 7.10105 15.7847L3.84238 13.1794C3.55483 12.9493 3.50826 12.5296 3.73838 12.2421C3.9685 11.9545 4.38816 11.908 4.67572 12.1381L7.39305 14.3121L11.5444 8.67808C11.6805 8.47381 11.9179 8.36087 12.1623 8.38411C12.4066 8.40734 12.6185 8.56299 12.7137 8.78926C12.8088 9.01553 12.772 9.2758 12.6177 9.46675Z" fill="white"/>
</svg>
