<svg width="32" height="32" viewBox="0 0 32 32" fill="none" xmlns="http://www.w3.org/2000/svg">
<rect width="32" height="32" rx="16" fill="#1971F5" fill-opacity="0.1"/>
<g clip-path="url(#clip0_1_940)">
<path d="M23.0268 12.2801C22.9476 11.9637 22.7863 11.6738 22.5592 11.4397C22.3321 11.2056 22.0473 11.0355 21.7334 10.9467C20.5868 10.6667 16.0001 10.6667 16.0001 10.6667C16.0001 10.6667 11.4134 10.6667 10.2668 10.9734C9.95293 11.0622 9.66808 11.2322 9.44099 11.4664C9.21391 11.7005 9.05262 11.9904 8.97343 12.3067C8.76357 13.4705 8.66092 14.651 8.66676 15.8334C8.65928 17.0248 8.76194 18.2143 8.97343 19.3867C9.06074 19.6933 9.22563 19.9722 9.45219 20.1964C9.67875 20.4206 9.95931 20.5826 10.2668 20.6667C11.4134 20.9734 16.0001 20.9734 16.0001 20.9734C16.0001 20.9734 20.5868 20.9734 21.7334 20.6667C22.0473 20.578 22.3321 20.4079 22.5592 20.1738C22.7863 19.9397 22.9476 19.6498 23.0268 19.3334C23.235 18.1785 23.3376 17.007 23.3334 15.8334C23.3409 14.6421 23.2383 13.4525 23.0268 12.2801V12.2801Z" stroke="#1971F5" stroke-width="1.5" stroke-linecap="round" stroke-linejoin="round"/>
<path d="M14.5 18.0133L18.3333 15.8333L14.5 13.6533V18.0133Z" stroke="#1971F5" stroke-width="1.5" stroke-linecap="round" stroke-linejoin="round"/>
</g>
<defs>
<clipPath id="clip0_1_940">
<rect width="16" height="16" fill="white" transform="translate(8 8)"/>
</clipPath>
</defs>
</svg>
